<?xml version="1.0" encoding="UTF-8"?>
<svg id="Layer_2" data-name="Layer 2" xmlns="http://www.w3.org/2000/svg" viewBox="0 0 993.43 314.55">
  <defs>
    <style>
      .cls-1 {
        fill: #fff;
      }

      .cls-2 {
        fill: #06c655;
      }
    </style>
  </defs>
  <g id="Layer_4" data-name="Layer 4">
    <g>
      <polygon class="cls-1" points="653.78 314.51 568.64 314.51 496.55 117.08 424.45 314.51 338.92 314.51 453.79 0 539.3 0 653.29 313.16 653.78 314.51"/>
      <polygon class="cls-1" points="993.43 314.43 993.43 314.55 908.01 314.55 907.92 314.43 872.52 265.87 836.09 215.93 836.02 215.84 836.02 216.03 764.19 314.55 678.94 314.55 678.94 314.17 782.7 171.66 889.5 171.66 931.25 229.03 993.43 314.43"/>
      <polygon class="cls-1" points="993.43 .04 993.43 .17 889.52 142.69 782.68 142.69 766.84 120.98 741.04 85.57 678.94 .43 678.94 .04 764.54 .04 836.09 98.32 907.64 .04 993.43 .04"/>
    </g>
    <g>
      <path class="cls-1" d="M40.23,314.52h233.97c22.22,0,40.23-18.01,40.23-40.23V40.3C314.44,18.08,296.43.06,274.21.06H40.23C18.01.06,0,18.08,0,40.3v233.99c0,22.22,18.01,40.23,40.23,40.23ZM246.52,57.68v171.64c0,9.53-7.73,17.26-17.26,17.26H57.62c-9.53,0-17.26-7.73-17.26-17.26V57.68c0-9.53,7.73-17.26,17.26-17.26h171.64c9.53,0,17.26,7.73,17.26,17.26Z"/>
      <rect class="cls-1" x="72.92" y="72.68" width="48.16" height="96.34" rx="14.32" ry="14.32"/>
      <path class="cls-2" d="M263.21,120.86l24.05,24.05c5.59,5.59,5.59,14.66,0,20.25l-13.82,13.82c-5.59,5.59-14.66,5.59-20.25,0l-13.93-13.93c-5.59-5.59-14.65-5.59-20.24,0l-13.82,13.81c-5.59,5.59-14.65,5.59-20.24,0l-13.82-13.82c-5.59-5.59-5.59-14.66,0-20.25l13.81-13.8c5.59-5.59,5.59-14.65,0-20.25l-13.81-13.82c-5.59-5.59-5.59-14.65,0-20.24l13.81-13.82c5.59-5.59,14.66-5.59,20.25,0l23.94,23.94.11-.12,24.05-24.05c5.59-5.59,14.66-5.59,20.25,0l13.82,13.82c5.59,5.59,5.59,14.66,0,20.25l-24.05,24.05-.11.12Z"/>
    </g>
  </g>
</svg>