<?xml version="1.0" encoding="UTF-8"?>
<svg id="Layer_2" data-name="Layer 2" xmlns="http://www.w3.org/2000/svg" viewBox="0 0 993.58 314.55">
  <defs>
    <style>
      .cls-1 {
        fill: #fff;
      }

      .cls-2 {
        fill: #06c655;
      }
    </style>
  </defs>
  <g id="Layer_4" data-name="Layer 4">
    <g>
      <polygon class="cls-2" points="653.93 314.51 568.79 314.51 496.69 117.08 424.6 314.51 339.07 314.51 453.94 0 539.45 0 653.44 313.16 653.93 314.51"/>
      <polygon points="993.58 314.43 993.58 314.55 908.16 314.55 908.07 314.43 872.66 265.87 836.24 215.93 836.17 215.84 836.17 216.03 764.33 314.55 679.09 314.55 679.09 314.17 782.85 171.66 889.64 171.66 931.4 229.03 993.58 314.43"/>
      <polygon points="993.58 .04 993.58 .17 889.66 142.69 782.83 142.69 766.99 120.98 741.18 85.57 679.09 .43 679.09 .04 764.68 .04 836.24 98.32 907.79 .04 993.58 .04"/>
    </g>
    <g>
      <path class="cls-1" d="M269.15,38.83v209.33c0,11.63-9.42,21.05-21.05,21.05H38.77c-11.63,0-21.05-9.42-21.05-21.05V38.83c0-11.63,9.42-21.05,21.05-21.05h209.33c11.63,0,21.05,9.42,21.05,21.05Z"/>
      <path d="M40.23,314.51h233.97c22.22,0,40.23-18.01,40.23-40.23V40.29C314.44,18.07,296.43.05,274.21.05H40.23C18.01.05,0,18.07,0,40.29v233.99c0,22.22,18.01,40.23,40.23,40.23ZM246.52,57.67v171.64c0,9.53-7.73,17.26-17.26,17.26H57.62c-9.53,0-17.26-7.73-17.26-17.26V57.67c0-9.53,7.73-17.26,17.26-17.26h171.64c9.53,0,17.26,7.73,17.26,17.26Z"/>
      <rect x="72.92" y="72.67" width="48.16" height="96.34" rx="14.32" ry="14.32"/>
      <path class="cls-2" d="M263.21,120.85l24.05,24.05c5.59,5.59,5.59,14.66,0,20.25l-13.82,13.82c-5.59,5.59-14.66,5.59-20.25,0l-13.93-13.93c-5.59-5.59-14.65-5.59-20.24,0l-13.82,13.81c-5.59,5.59-14.65,5.59-20.24,0l-13.82-13.82c-5.59-5.59-5.59-14.66,0-20.25l13.81-13.8c5.59-5.59,5.59-14.65,0-20.25l-13.81-13.82c-5.59-5.59-5.59-14.65,0-20.24l13.81-13.82c5.59-5.59,14.66-5.59,20.25,0l23.94,23.94.11-.12,24.05-24.05c5.59-5.59,14.66-5.59,20.25,0l13.82,13.82c5.59,5.59,5.59,14.66,0,20.25l-24.05,24.05-.11.12Z"/>
    </g>
  </g>
</svg>